<?xml version="1.0" standalone="no"?>
<!DOCTYPE svg PUBLIC "-//W3C//DTD SVG 20010904//EN"
 "http://www.w3.org/TR/2001/REC-SVG-20010904/DTD/svg10.dtd">
<svg version="1.0" xmlns="http://www.w3.org/2000/svg"
 width="250.000000pt" height="250.000000pt" viewBox="0 0 250.000000 250.000000"
 preserveAspectRatio="xMidYMid meet">
<metadata>
Created by potrace 1.14, written by Peter Selinger 2001-2017
</metadata>
<g transform="translate(0.000000,250.000000) scale(0.100000,-0.100000)"
fill="#000000" stroke="none">
<path d="M1095 2493 c-11 -2 -54 -10 -96 -18 -364 -70 -692 -320 -866 -660
-37 -73 -97 -242 -108 -305 -4 -25 -10 -56 -12 -70 -12 -68 -11 -302 2 -388
28 -183 118 -396 231 -548 181 -244 472 -425 779 -485 75 -15 328 -19 410 -7
143 21 327 88 455 165 574 347 776 1075 462 1663 -173 324 -483 556 -849 636
-73 16 -354 28 -408 17z m295 -227 c226 -31 425 -132 590 -299 187 -188 293
-447 293 -712 0 -620 -532 -1093 -1149 -1022 -197 23 -407 119 -561 256 -153
137 -285 368 -318 556 -20 116 -24 248 -11 352 13 107 71 269 135 380 133 233
413 429 681 479 111 20 241 24 340 10z"/>
<path d="M1163 1864 c-2 -6 -3 -44 -1 -85 l3 -74 83 -1 82 -2 0 84 c0 46 -3
84 -7 85 -51 6 -156 2 -160 -7z"/>
<path d="M1009 1529 c-6 -3 -9 -39 -7 -80 l3 -74 78 -1 78 -1 -3 80 -3 81 -68
0 c-38 1 -73 -2 -78 -5z"/>
<path d="M1340 1532 c-6 -2 -10 -38 -10 -81 l0 -77 85 -1 85 -1 0 79 c0 44 -3
79 -7 80 -24 3 -145 3 -153 1z"/>
<path d="M834 1201 c-2 -2 -4 -41 -4 -86 l0 -82 85 0 85 0 0 86 0 86 -81 0
c-44 0 -82 -2 -85 -4z"/>
<path d="M1162 1120 l3 -85 83 -1 82 -1 0 83 c0 46 -3 84 -7 85 -5 1 -43 2
-86 3 l-78 1 3 -85z"/>
<path d="M1500 1119 l0 -87 80 1 80 0 0 83 c0 73 -2 84 -17 85 -10 1 -46 2
-80 3 l-63 1 0 -86z"/>
<path d="M660 789 l0 -86 85 -1 85 0 0 84 c0 60 -4 84 -12 85 -7 1 -46 2 -85
3 l-73 1 0 -86z"/>
<path d="M1664 871 c-2 -2 -4 -41 -4 -87 l0 -82 85 1 86 1 -3 85 -3 85 -78 1
c-43 0 -81 -2 -83 -4z"/>
</g>
</svg>
